:SAMPLES-PER-SECOND 30
:FULLY-SPECIFIED
:DEGREES
595
root  -35.7829 34.324 -29.6928 -173.607 17.604 -179.632
RightUpLeg  -23.837 -10.1988 -8.27781
RightLeg  44.6356 -4.32617 -3.778
RightFoot  9.9532 0.115588 -0.764172
RightToes  -34.217 -0.174011 -0.28018
Spine  -0.102009 0.546997 -0.426322
Spine1  -0.1589 1.39726 -0.358848
HEad  -65.4248 3.3266 3.11951
LeftShoulder1  -1.94126e-019 -3.10601e-018 -2.51263e-017
LeftArm  7.71712 -10.5541 -83.4669
LeftForeArm  33.5405 -39.2683 -7.06166
LeftHand  -0.464305 -3.03805 6.63249
RightShoulder  -4.96962e-017 0 -2.36833e-017
RightArm  -27.6784 2.55782 61.7326
RightForeArm  49.6075 34.2339 4.81953
RightHand  -0.288959 -2.97563 -13.465
LeftUpLeg  -21.1393 8.36368 1.10941
LeftLeg  29.1007 9.45869 4.46135
LeftFoot  0.357946 0.00853412 0.258071
LeftToes  -18.2363 1.70063e-006 7.6642e-008
596
root  -35.7339 34.4398 -30.0097 -173.63 15.6447 -179.124
RightUpLeg  -22.3843 -11.0792 -7.85048
RightLeg  40.3042 -5.01176 -3.73827
RightFoot  8.20994 0.0875485 -0.655724
RightToes  -30.018 -0.144045 -0.252091
Spine  -0.212704 0.263914 -0.252524
Spine1  -0.353495 0.858507 -0.0129958
HEad  -63.9461 3.04691 3.51914
LeftShoulder1  -1.94126e-019 -3.10601e-018 -2.51263e-017
LeftArm  10.9728 -12.3531 -84.07
LeftForeArm  34.2252 -41.4201 -7.66805
LeftHand  -0.485517 -3.06397 6.90499
RightShoulder  -4.96962e-017 0 -2.36833e-017
RightArm  -25.6713 3.85849 62.6934
RightForeArm  47.4973 39.8992 6.3905
RightHand  -0.258721 -3.31765 -13.941
LeftUpLeg  -20.3542 7.41499 1.6519
LeftLeg  28.2449 8.61451 3.9122
LeftFoot  0.608463 0.00446004 0.300148
LeftToes  -18.8555 1.70063e-006 7.6642e-008
597
root  -35.5925 34.5604 -30.3748 -173.801 13.4504 -178.742
RightUpLeg  -19.1959 -11.734 -7.32826
RightLeg  31.7341 -5.52222 -2.94601
RightFoot  5.33989 0.0424408 -0.350601
RightToes  -29.0073 -0.137145 -0.245008
Spine  -0.409674 0.0991634 -0.159805
Spine1  -0.722946 0.528379 0.205617
HEad  -62.2501 1.81456 4.1307
LeftShoulder1  -1.94126e-019 -3.10601e-018 -2.51263e-017
LeftArm  13.6602 -12.7886 -84.5709
LeftForeArm  34.4125 -43.7625 -8.41337
LeftHand  -0.505117 -3.3761 6.93862
RightShoulder  -4.96962e-017 0 -2.36833e-017
RightArm  -22.7036 3.5024 63.5045
RightForeArm  46.5836 45.5874 8.19221
RightHand  -0.313602 -2.74465 -13.4042
LeftUpLeg  -19.1559 5.3723 2.2504
LeftLeg  27.0205 8.60056 3.68784
LeftFoot  0.871087 0.00062028 0.344928
LeftToes  -18.8685 1.70063e-006 7.6642e-008
598
root  -35.3727 34.6223 -30.7352 -173.926 11.8738 -178.924
RightUpLeg  -15.8604 -11.0125 -7.13152
RightLeg  21.5365 -3.62149 -1.16802
RightFoot  6.06242 0.0395264 -0.197493
RightToes  -31.4708 -0.154179 -0.262057
Spine  -0.686006 0.161585 -0.312396
Spine1  -1.23864 0.622502 -0.0322561
HEad  -61.3296 0.329144 4.81876
LeftShoulder1  -1.94126e-019 -3.10601e-018 -2.51263e-017
LeftArm  15.7529 -12.0756 -84.261
LeftForeArm  34.1568 -47.0785 -9.62262
LeftHand  -0.495701 -3.35349 6.83021
RightShoulder  -4.96962e-017 0 -2.36833e-017
RightArm  -18.7746 2.19608 64.434
RightForeArm  48.1677 51.4852 10.343
RightHand  -0.3625 -2.12309 -12.6626
LeftUpLeg  -18.0123 3.44365 2.39912
LeftLeg  25.788 9.00083 3.6323
LeftFoot  1.05819 -0.00205172 0.383748
LeftToes  -18.9944 1.70063e-006 7.6642e-008
599
root  -35.081 34.646 -31.0551 -173.876 10.8679 -179.062
RightUpLeg  -13.1387 -8.88406 -6.76088
RightLeg  12.9629 -1.29308 -0.210651
RightFoot  8.385 0.0401936 -0.00941009
RightToes  -29.7305 -0.142069 -0.250088
Spine  -0.974983 0.36463 -0.506885
Spine1  -1.79362 1.01255 -0.383472
HEad  -60.8171 -0.969866 5.55057
LeftShoulder1  -1.94126e-019 -3.10601e-018 -2.51263e-017
LeftArm  17.1213 -10.3691 -83.0327
LeftForeArm  34.2363 -50.8248 -11.1719
LeftHand  -0.460874 -3.37826 6.3518
RightShoulder  -4.96962e-017 0 -2.36833e-017
RightArm  -14.2937 0.547074 65.6915
RightForeArm  52.1266 56.3574 12.4074
RightHand  -0.461744 -0.967029 -12.0706
LeftUpLeg  -17.1554 1.65922 2.69982
LeftLeg  24.903 9.7455 3.75692
LeftFoot  1.15565 -0.00256728 0.416132
LeftToes  -19.8189 1.70063e-006 7.6642e-008
600
root  -34.7557 34.662 -31.3205 -173.967 10.2708 -179.267
RightUpLeg  -11.2544 -5.40977 -6.74055
RightLeg  10.0655 -4.50076 -0.501337
RightFoot  9.56412 0.0932299 -0.557162
RightToes  -28.8882 -0.136341 -0.244165
Spine  -1.08348 0.600442 -0.755365
Spine1  -2.02639 1.47094 -0.876774
HEad  -60.5393 -1.83703 5.97567
LeftShoulder1  -1.94126e-019 -3.10601e-018 -2.51263e-017
LeftArm  17.8071 -7.97569 -81.0154
LeftForeArm  34.3526 -54.1571 -12.7887
LeftHand  -0.46185 -3.40404 6.34774
RightShoulder  -4.96962e-017 0 -2.36833e-017
RightArm  -10.0178 -0.680258 67.6349
RightForeArm  57.0677 59.0956 13.6061
RightHand  -0.629024 0.781657 -11.9285
LeftUpLeg  -16.2177 0.200505 2.98381
LeftLeg  24.0609 10.577 3.89736
LeftFoot  1.39194 -0.00276648 0.477994
LeftToes  -20.8772 1.70063e-006 7.6642e-008
601
root  -34.4335 34.7279 -31.5638 -173.966 9.85777 -179.375
RightUpLeg  -9.71994 -5.37897 -6.51061
RightLeg  8.21571 -4.95311 -0.390367
RightFoot  9.99474 0.107542 -0.66976
RightToes  -30.4556 -0.147071 -0.25512
Spine  -1.14541 0.727688 -0.89227
Spine1  -2.17916 1.69748 -1.14264
HEad  -60.2011 -2.06438 5.72669
LeftShoulder1  -1.94126e-019 -3.10601e-018 -2.51263e-017
LeftArm  17.0272 -4.31443 -79.0286
LeftForeArm  34.9689 -56.3415 -13.9598
LeftHand  -0.486571 -3.49989 6.60801
RightShoulder  -4.96962e-017 0 -2.36833e-017
RightArm  -6.0418 -1.72992 69.9874
RightForeArm  61.1072 59.607 13.6
RightHand  -0.798851 2.57879 -11.8212
LeftUpLeg  -15.0892 -1.04944 3.34138
LeftLeg  22.6546 11.3931 3.88193
LeftFoot  1.93633 -0.00654817 0.607871
LeftToes  -21.4821 1.70063e-006 7.6642e-008
602
root  -34.1151 34.8297 -31.7902 -173.923 9.67859 -179.454
RightUpLeg  -8.59774 -9.39616 -6.13459
RightLeg  6.66293 -1.19684 -0.0611115
RightFoot  10.6199 0.0551367 -0.0530528
RightToes  -31.542 -0.154683 -0.262539
Spine  -1.20072 0.847748 -0.85907
Spine1  -2.31506 1.90054 -1.06163
HEad  -60.3257 -1.77494 4.80168
LeftShoulder1  -1.94126e-019 -3.10601e-018 -2.51263e-017
LeftArm  14.6555 0.430957 -77.9675
LeftForeArm  34.9972 -56.2928 -13.9183
LeftHand  -0.543012 -3.66997 7.21686
RightShoulder  -4.96962e-017 0 -2.36833e-017
RightArm  -3.06606 -3.02455 72.15
RightForeArm  63.6968 58.4687 12.7117
RightHand  -0.923059 4.24777 -11.3594
LeftUpLeg  -13.5132 -1.58261 3.69574
LeftLeg  20.2453 11.8358 3.48802
LeftFoot  2.85496 -0.01622 0.812452
LeftToes  -22.2414 1.70063e-006 7.6642e-008
603
root  -33.7627 34.9191 -31.988 -173.582 9.41821 -179.788
RightUpLeg  -8.38536 -12.6551 -5.89406
RightLeg  6.24121 1.61932 0.0734265
RightFoot  10.5757 0.00759174 0.443099
RightToes  -31.9285 -0.15498 -0.262839
Spine  -1.40616 0.968165 -0.85804
Spine1  -2.74583 2.09201 -1.03627
HEad  -60.7277 -1.55311 4.08409
LeftShoulder1  -1.94126e-019 -3.10601e-018 -2.51263e-017
LeftArm  10.2555 6.10284 -77.9686
LeftForeArm  34.1979 -53.9635 -12.6756
LeftHand  -0.555217 -3.87238 7.2243
RightShoulder  -4.96962e-017 0 -2.36833e-017
RightArm  -1.3501 -5.09139 73.9878
RightForeArm  63.8472 56.5115 11.6289
RightHand  -0.853908 5.66046 -9.26308
LeftUpLeg  -11.9326 -2.00585 3.88267
LeftLeg  17.0175 12.0938 2.84082
LeftFoot  4.07135 -0.0325354 1.07689
LeftToes  -23.0705 1.70063e-006 7.6642e-008
604
root  -33.3913 34.9785 -32.198 -173.223 8.74547 179.902
RightUpLeg  -7.74817 -13.5202 -5.65122
RightLeg  5.33138 1.68655 0.049554
RightFoot  10.2972 0.0072188 0.444597
RightToes  -31.2877 -0.152193 -0.260137
Spine  -1.60181 1.00917 -0.910238
Spine1  -3.17465 2.142 -1.13079
HEad  -60.8902 -1.52 4.19019
LeftShoulder1  -1.94126e-019 -3.10601e-018 -2.51263e-017
LeftArm  4.35742 11.505 -78.5389
LeftForeArm  31.827 -48.9643 -10.5198
LeftHand  -0.558942 -3.6376 7.44517
RightShoulder  -4.96962e-017 0 -2.36833e-017
RightArm  -0.885137 -7.49852 75.5553
RightForeArm  62.5434 53.1731 10.1213
RightHand  -0.699042 5.88939 -7.50313
LeftUpLeg  -10.3208 -2.83157 4.1404
LeftLeg  13.5776 12.3621 2.13701
LeftFoot  5.39128 -0.057043 1.37306
LeftToes  -24.2767 1.70063e-006 7.6642e-008
605
root  -33.0622 34.9996 -32.4102 -173.052 7.57596 179.654
RightUpLeg  -6.84626 -13.4662 -5.48474
RightLeg  4.55399 0.477311 0.00819587
RightFoot  9.91524 0.0263225 0.23418
RightToes  -30.8416 -0.149759 -0.257773
Spine  -1.70788 0.939817 -0.971656
Spine1  -3.43719 1.98988 -1.25011
HEad  -60.8879 -1.65673 4.64308
LeftShoulder1  -1.94126e-019 -3.10601e-018 -2.51263e-017
LeftArm  -2.65683 15.4968 -79.4819
LeftForeArm  28.2333 -40.5544 -7.758
LeftHand  -0.54113 -2.34424 8.32976
RightShoulder  -4.96962e-017 0 -2.36833e-017
RightArm  -2.71661 -9.96778 76.9426
RightForeArm  62.0774 48.1209 8.16539
RightHand  -0.644034 6.22215 -6.758
LeftUpLeg  -8.75774 -4.5262 4.41318
LeftLeg  10.4435 12.9902 1.52522
LeftFoot  6.58795 -0.0884382 1.69807
LeftToes  -25.093 1.70063e-006 7.6642e-008
606
root  -32.7832 34.9913 -32.6168 -172.872 5.83368 179.54
RightUpLeg  -5.68632 -12.9865 -5.25301
RightLeg  3.5146 -1.65466 0.0057877
RightFoot  9.57478 0.0545129 -0.108691
RightToes  -30.3042 -0.149135 -0.25717
Spine  -1.82868 0.644621 -0.919798
Spine1  -3.71402 1.38986 -1.13589
HEad  -61.0703 -1.55377 4.88951
LeftShoulder1  -1.94126e-019 -3.10601e-018 -2.51263e-017
LeftArm  -10.7455 17.8586 -80.5091
LeftForeArm  25.2415 -28.2534 -4.69954
LeftHand  -0.516234 -1.0081 9.50649
RightShoulder  -4.96962e-017 0 -2.36833e-017
RightArm  -6.46094 -12.1192 77.9171
RightForeArm  61.9615 41.1851 6.01354
RightHand  -0.680257 6.00206 -7.24437
LeftUpLeg  -7.67549 -6.40146 4.78975
LeftLeg  7.97832 13.3038 0.989345
LeftFoot  7.50551 -0.116713 1.9408
LeftToes  -25.5906 1.70063e-006 7.6642e-008
607
root  -32.5496 34.9553 -32.8101 -172.605 3.71169 179.532
RightUpLeg  -4.60233 -14.0014 -4.91394
RightLeg  2.45489 -2.62941 0.0572025
RightFoot  9.11424 0.0626263 -0.238769
RightToes  -30.3307 -0.149012 -0.257055
Spine  -2.0152 0.258074 -0.786873
Spine1  -4.1134 0.60179 -0.843662
HEad  -61.2509 -1.57026 4.93009
LeftShoulder1  -1.94126e-019 -3.10601e-018 -2.51263e-017
LeftArm  -21.7394 18.4462 -80.7966
LeftForeArm  27.5954 -11.1867 -1.93957
LeftHand  -0.486246 0.640495 11.9064
RightShoulder  -4.96962e-017 0 -2.36833e-017
RightArm  -12.5539 -14.0058 78.3329
RightForeArm  61.9304 32.4212 3.84948
RightHand  -0.770783 5.03181 -8.8663
LeftUpLeg  -7.28097 -7.121 5.27109
LeftLeg  6.43376 12.1439 0.578455
LeftFoot  8.06852 -0.122027 1.89162
LeftToes  -26.3366 1.70063e-006 7.6642e-008
